<svg width="40" height="40" xmlns="http://www.w3.org/2000/svg">
 <defs>
  <linearGradient id="gradient_0" x1="0.07696" y1="0.07238" x2="0.64731" y2="0.64869">
   <stop offset="0" stop-color="#8000FE"/>
   <stop offset="1" stop-color="#459CF1"/>
  </linearGradient>
  <linearGradient id="gradient_1" x1="0.89934" y1="0.90531" x2="0.51513" y2="0.52361">
   <stop offset="0" stop-color="#1EF9E2"/>
   <stop offset="1" stop-color="#429FED"/>
  </linearGradient>
 </defs>
 <g>
  <title>Layer 1</title>
  <g stroke="null" id="svg_1">
   <path stroke="null" fill="url(#gradient_0)" d="m9.63379,39.9364c-2.2412,-0.13038 -4.50647,-0.96501 -6.19211,-2.46593c-2.03499,-1.78904 -3.25775,-4.32676 -3.38872,-7.0332c-0.07265,-1.28362 -0.02827,-2.9559 -0.02994,-4.26073c-0.02079,-2.65308 -0.021,-5.30631 -0.00048,-7.95944l0.00366,-5.56077c0.00113,-1.57287 -0.09128,-3.16404 0.22883,-4.69905c0.3472,-1.72802 1.15367,-3.33051 2.33458,-4.6389c1.83514,-2.03273 4.41142,-3.24106 7.1477,-3.35243c0.46035,-0.0223 1.02775,-0.00797 1.49392,-0.00759l2.66562,0.00188l8.22274,-0.00097l5.39302,-0.0007c1.38298,-0.00124 3.04664,-0.08364 4.37275,0.1866c1.73707,0.35393 3.54576,1.20903 4.86088,2.40696c1.51067,1.35637 2.56815,3.14417 3.0293,5.12132c0.08019,0.33697 0.19705,0.851 0.21208,1.18894c0.07847,0.49147 0.0769,1.12098 0.07841,1.62031l-0.00032,1.85474l-0.00075,6.03712l0,8.26318l-0.00022,2.30588c-0.00005,0.79435 0.01012,1.6341 -0.11363,2.41994c-0.2431,1.62726 -0.87222,3.17261 -1.83487,4.5069c-1.56479,2.12477 -3.90659,3.54415 -6.51421,3.94838c-1.36833,0.21606 -3.0985,0.15472 -4.51347,0.15214l-6.02414,-0.00248l-7.42413,-0.00458l-2.44105,-0.00151c-0.47456,-0.00097 -1.0961,0.00856 -1.56544,-0.02601z" id="svg_2"/>
   <path stroke="null" fill="url(#gradient_1)" d="m39.98761,8.86239c0.07847,0.49147 0.0769,1.12098 0.07841,1.62031l-0.00032,1.85474l-0.00075,6.03712l0,8.26318l-0.00022,2.30588c-0.00005,0.79435 0.01012,1.6341 -0.11363,2.41994c-0.2431,1.62726 -0.87222,3.17261 -1.83487,4.5069c-1.56479,2.12477 -3.90659,3.54415 -6.51421,3.94838c-1.36833,0.21606 -3.0985,0.15472 -4.51347,0.15214l-6.02414,-0.00248l-7.42413,-0.00458l-2.44105,-0.00151c-0.47456,-0.00097 -1.0961,0.00856 -1.56544,-0.02601c0.34246,-0.07437 1.43085,0.01492 1.84122,-0.03404c0.07766,-0.00926 0.10028,-0.41608 0.28764,-0.47666c0.01002,-0.00797 0.02003,-0.01589 0.03005,-0.02386c0.03183,-0.13167 -0.07572,-0.07152 -0.05935,-0.21983c0.15844,-0.17147 0.40644,-0.26803 0.56687,-0.431c1.10972,-1.11791 2.13241,-2.38095 3.41716,-3.30697c0.86511,-0.62358 1.48455,-1.24872 2.11259,-2.10742c0.16291,-0.2228 1.64762,-1.81408 1.77886,-1.84882l0.00183,0.13227l0.01987,0.00555c0.13404,-0.46169 0.11923,-0.29507 0.41705,-0.60898c0.22737,-0.2396 0.77362,-0.684 0.92602,-0.95026c0.0775,-0.02063 0.13555,-0.02601 0.19291,-0.08671l0.02327,0.01319c0.04448,-0.06441 0.0608,-0.04992 0.15693,-0.07895c0.02795,-0.05509 0.014,-0.04508 0.06662,-0.08568c0.028,-0.13167 -0.27143,-0.21703 -0.36362,-0.36621c-0.20777,-0.33616 -0.28715,-0.44812 -0.31763,-0.85149l0.04438,-0.02714c-0.01707,-0.68524 0.2438,-1.02619 0.81315,-1.36127c0.23981,-0.27773 2.64726,-0.04335 3.12015,-0.15499c0.08412,-0.07356 0.04055,-0.11234 0.11218,-0.20518c0.36605,-0.00883 0.20578,-0.18779 0.3822,-0.41247c0.5491,-0.6993 0.97837,-1.53339 1.51153,-2.22967c0.58755,-0.76732 1.38772,-1.51368 2.08357,-2.18519c0.22425,-0.21639 0.50575,-0.34316 0.7231,-0.56472c0.26615,-0.30148 0.50494,-0.66768 0.77749,-0.98521c0.17977,-0.20944 0.39244,-0.33686 0.52034,-0.51442c-0.02176,-0.07933 -0.04303,-0.12521 -0.02472,-0.20518c0.09753,-0.06592 0.1586,-0.10652 0.26367,-0.15973l0.02348,-0.01174c-0.01583,-0.06161 -0.02036,-0.03511 -0.00603,-0.08837c0.14702,0.0042 0.22043,0.0042 0.3675,-0.00883c0.33013,-0.23529 0.39432,-0.19479 0.65126,-0.52212c0.31419,-0.05105 0.21165,-0.17993 0.43816,-0.34671c0.83339,-0.61388 1.30015,-1.5419 2.17124,-2.15072c0.12823,-0.13539 0.21843,-0.40407 0.36195,-0.51398c0.473,-0.36212 1.00745,-0.73576 1.49666,-1.05953c0.18617,-0.12322 0.48916,-0.67851 0.73231,-0.81966c0.09629,-0.05585 0.28473,-0.28807 0.37956,-0.36729c0.24881,-0.54086 0.7182,-0.6637 1.08559,-1.01914c0.62245,-0.65045 1.22739,-0.59913 1.26805,-1.59672c0.02332,-0.57118 -0.12667,-1.76087 -0.04125,-2.23813z" id="svg_3"/>
   <path stroke="null" fill="white" d="m21.58959,27.22211c0.60349,-0.11805 1.51917,-0.07351 2.15713,-0.07233l3.08235,0.00054l2.69939,-0.00215c0.45658,-0.00048 0.93049,-0.02246 1.39596,0.0112c1.47841,0.10674 1.63572,2.31223 0.23545,2.65728c-0.4367,0.1076 -1.33898,0.05595 -1.82453,0.05525l-3.06129,-0.00404l-2.82363,0.00108c-0.48232,0.00054 -0.96329,0.01524 -1.44475,-0.00948c-0.73549,-0.03781 -1.16611,-0.57899 -1.22922,-1.27608c-0.01707,-0.68524 0.2438,-1.02619 0.81315,-1.36127z" id="svg_4"/>
   <path stroke="null" fill="white" d="m10.52895,10.22884c0.3836,0.00705 0.69337,0.10038 0.97611,0.36971c0.5869,0.55906 1.14833,1.14521 1.72619,1.71456l4.15852,4.13913c0.66774,0.66628 1.42859,1.36176 2.00246,2.09865c0.31349,0.40245 0.13991,1.20795 -0.20497,1.55983c-0.37671,0.38436 -0.74992,0.7552 -1.13229,1.13223l-1.85652,1.84208l-2.79083,2.76676c-0.39362,0.39308 -1.82474,1.89276 -2.21594,2.09978c-0.13184,0.05832 -0.28995,0.09441 -0.43353,0.10879c-0.37391,0.04098 -0.74814,-0.07427 -1.03422,-0.31849c-0.26582,-0.232 -0.43078,-0.55847 -0.45981,-0.91014c-0.05644,-0.70021 0.42653,-1.09739 0.87535,-1.54029c0.28667,-0.2829 0.57339,-0.56633 0.85822,-0.85106l3.5679,-3.57388c0.3276,-0.32679 0.65724,-0.65147 0.98893,-0.97406c0.20588,-0.20071 0.50381,-0.47801 0.68066,-0.69413l0.02413,-0.02978c-0.14083,-0.16119 -0.38576,-0.38764 -0.54339,-0.54565l-1.14532,-1.14801l-3.24251,-3.23066c-0.63144,-0.61712 -1.36838,-1.28852 -1.93294,-1.96746c-0.31144,-0.37461 -0.23739,-1.17488 0.09182,-1.53517c0.30078,-0.32905 0.58588,-0.47225 1.04197,-0.51275z" id="svg_5"/>
   <path stroke="null" fill="white" d="m24.0503,12.59422c0.63494,-0.01508 1.51153,0.60284 2.07565,0.92026l2.77134,1.55725c0.57301,0.31979 1.14866,0.63386 1.72447,0.94902c0.2788,0.15262 0.63295,0.33487 0.81304,0.60435c0.16916,0.23696 0.22576,0.67517 0.13507,0.95236c-0.18418,0.56288 -1.01257,0.91466 -1.4937,1.17752l-1.66873,0.91875c-0.62196,0.33217 -1.24102,0.66973 -1.85706,1.01278c-0.46616,0.25931 -1.76658,1.02824 -2.17921,1.10875c-0.30718,0.05946 -0.62541,-0.00533 -0.88493,-0.18014c-0.64733,-0.4394 -0.52158,-1.35793 -0.52012,-2.04582l0.0028,-2.0526l-0.00065,-2.32252c-0.00081,-0.9963 -0.21542,-2.37228 1.08204,-2.59998z" id="svg_6"/>
  </g>
 </g>
</svg>